Coordinates
version=1
nRows=15
nColumns=23
inDegrees=yes

Units are S.I. units (second, meters, Newtons, ...)
If the header above contains a line with 'inDegrees', this indicates whether rotational values are in degrees (yes) or radians (no).

endheader
time	pelvis_tilt	pelvis_list	pelvis_rotation	pelvis_tx	pelvis_ty	pelvis_tz	hip_flexion_r	hip_adduction_r	hip_rotation_r	knee_angle_r	knee_angle_r_beta	ankle_angle_r	subtalar_angle_r	mtp_angle_r	hip_flexion_l	hip_adduction_l	hip_rotation_l	knee_angle_l	knee_angle_l_beta	ankle_angle_l	subtalar_angle_l	mtp_angle_l
     22.50000000	     -5.68851023	     -4.37376898	      1.15614991	      2.30287524	      0.97304172	      1.00194803	     42.23939722	     -1.56364120	    -12.88464242	     46.81018176	      0.81699180	      8.16529045	     -5.15789424	      0.00000000	    -22.45764261	     -5.72878394	    -12.18113770	     23.66642224	      0.41305699	    -19.92303155	     -0.91308612	      0.00000000
     22.50666667	     -5.57276372	     -4.43736063	      0.69814952	      2.30388241	      0.97367348	      1.00277987	     41.09748120	     -1.20699753	    -14.17702931	     42.62764744	      0.74399280	      8.56217470	     -2.42427899	      0.00000000	    -22.59212319	     -5.73899973	    -11.82164171	     26.27983893	      0.45866972	    -19.94741645	     -2.05793574	      0.00000000
     22.51333333	     -5.30602021	     -4.45467433	      0.26713085	      2.30457946	      0.97389136	      1.00373213	     39.76908940	     -0.81434292	    -15.42683414	     38.74004565	      0.67614135	      8.88453305	      0.29883259	      0.00000000	    -22.60230317	     -5.72393435	    -11.43037348	     29.38090061	      0.51279345	    -19.75305708	     -3.24115526	      0.00000000
     22.52000000	     -5.00435879	     -4.43518949	     -0.20190641	      2.30495917	      0.97360693	      1.00486838	     38.40879029	     -0.29231555	    -16.39019140	     35.17630664	      0.61394237	      9.08568481	      2.75626195	      0.00000000	    -22.40438479	     -5.67466525	    -11.10774081	     32.87834164	      0.57383531	    -19.49532826	     -4.37195051	      0.00000000
     22.52666667	     -4.69425045	     -4.39426086	     -0.67104401	      2.30507471	      0.97278681	      1.00607163	     37.06425028	      0.31929361	    -17.03221434	     32.00644655	      0.55861787	      9.14442279	      4.78162102	      0.00000000	    -21.98386188	     -5.62590359	    -10.85332707	     36.71990552	      0.64088325	    -19.24924177	     -5.53024644	      0.00000000
     22.53333333	     -4.59939449	     -4.11282324	     -1.29331988	      2.30470126	      0.97105524	      1.00750517	     36.10386329	      0.85365650	    -17.07420417	     29.43473193	      0.51373299	      9.05645893	      6.17208139	      0.00000000	    -21.08984955	     -5.30821703	    -10.69687118	     40.89129650	      0.71368776	    -18.97559330	     -6.80613109	      0.00000000
     22.54000000	     -3.85156702	     -4.42689898	     -1.53940719	      2.30466512	      0.96997551	      1.00836860	     34.19449003	      1.72660152	    -17.67461495	     26.95446669	      0.47044419	      8.76974155	      7.39502070	      0.00000000	    -20.81176026	     -5.73173268	    -10.62569891	     45.08341007	      0.78685394	    -18.80734028	     -8.02269701	      0.00000000
     22.54666667	     -3.37473441	     -4.53812503	     -1.90835076	      2.30429500	      0.96798723	      1.00935706	     32.73335193	      2.46406047	    -17.81627553	     25.14346113	      0.43883618	      8.37135903	      7.96490562	      0.00000000	    -20.06559018	     -5.93120426	    -10.61717291	     49.44341560	      0.86295040	    -18.67330243	     -9.47526105	      0.00000000
     22.55333333	     -2.96010204	     -4.64823678	     -2.25182973	      2.30378071	      0.96549733	      1.01024586	     31.41548303	      3.10469535	    -17.95439009	     23.92679468	      0.41760135	      7.89943045	      8.15219508	      0.00000000	    -19.11549667	     -6.15959548	    -10.64302724	     53.86358382	      0.94009688	    -18.59712863	    -11.11896766	      0.00000000
     22.56000000	     -2.47393714	     -4.83740257	     -2.61569650	      2.30320352	      0.96272920	      1.01108632	     30.08073093	      3.73686016	    -18.11924361	     23.29089306	      0.40650277	      7.44510259	      8.04554570	      0.00000000	    -18.16366591	     -6.47386270	    -10.77200823	     58.24354868	      1.01654169	    -18.43856117	    -12.89043008	      0.00000000
     22.56666667	     -1.75500687	     -5.30006502	     -2.74275477	      2.30264936	      0.96017009	      1.01147696	     28.39437439	      4.58429280	    -18.08634685	     22.82639234	      0.39839570	      6.50152856	      6.60972810	      0.00000000	    -17.36954250	     -7.10339167	    -10.76515908	     62.50675030	      1.09094860	    -18.48560011	    -14.91443941	      0.00000000
     22.57333333	     -1.24156940	     -5.65169221	     -3.09042660	      2.30173690	      0.95696662	      1.01231331	     27.10629994	      5.30627737	    -17.91707252	     23.10907746	      0.40332949	      5.93882418	      5.15513143	      0.00000000	    -16.26241777	     -7.68156747	    -11.01621025	     66.76175255	      1.16521240	    -18.30112618	    -16.78049864	      0.00000000
     22.58000000	     -0.57882045	     -6.05594035	     -3.33878441	      2.30074311	      0.95374605	      1.01283004	     25.77003131	      5.82240066	    -18.16148088	     24.10105474	      0.42064276	      5.68404577	      4.14978984	      0.00000000	    -15.22246125	     -8.31812191	    -11.16465526	     70.86124268	      1.23676200	    -17.96801262	    -18.49736957	      0.00000000
     22.58666667	     -0.11797030	     -6.54284066	     -3.45092042	      2.29953796	      0.95028948	      1.01305719	     24.66736222	      6.39619225	    -18.09209451	     25.42261642	      0.44370836	      5.57747196	      2.30228672	      0.00000000	    -13.79910914	     -9.06738920	    -11.07094141	     74.89247217	      1.30712022	    -17.64039202	    -20.30113887	      0.00000000
     22.59333333	     -0.08115334	     -6.65478004	     -3.91039696	      2.29763823	      0.94628483	      1.01366312	     24.19359289	      6.86163391	    -16.84562216	     27.23246650	      0.47529620	      5.35675232	     -0.89845495	      0.00000000	    -11.75644219	     -9.36159823	    -11.07009285	     78.82232803	      1.37570915	    -17.21420937	    -21.83848498	      0.00000000
